<svg width="66" height="67" viewBox="0 0 66 67" fill="none" xmlns="http://www.w3.org/2000/svg">
<g filter="url(#filter0_d_844_455)">
<path d="M14.3615 8.10219C15.1755 7.99198 16.0055 8.06936 16.7876 8.33031L26.5481 11.589L26.5465 11.5902C26.6003 11.6082 26.6548 11.6244 26.7081 11.6443C26.9341 11.729 27.1136 11.8175 27.2161 11.8695C27.255 11.888 27.3037 11.911 27.3577 11.9388C27.4525 11.9875 27.5826 12.0579 27.731 12.1515C27.7829 12.1843 27.8342 12.2187 27.8848 12.2535C28.1626 12.4447 28.3613 12.6248 28.4386 12.6959C28.4421 12.699 28.4454 12.7025 28.449 12.7058C28.4681 12.7226 28.4898 12.7393 28.5104 12.758C28.6088 12.8477 28.7381 12.9745 28.8802 13.1361L28.882 13.1357C28.8981 13.154 28.9129 13.173 28.9283 13.191C28.9405 13.2053 28.9534 13.2194 28.9657 13.2343C29.1451 13.4491 29.2688 13.6336 29.3346 13.7355C29.3415 13.7461 29.3476 13.7569 29.3539 13.7667C29.3616 13.7782 29.3705 13.7893 29.3785 13.8014C29.4537 13.9161 29.5526 14.0804 29.6551 14.2853L29.6569 14.2849C29.6616 14.2945 29.6655 14.3049 29.6703 14.3146C29.6783 14.3309 29.687 14.3472 29.6951 14.3641L29.6933 14.3644C29.8843 14.7619 30.0278 15.1805 30.1166 15.6127L30.316 16.5957C30.3876 16.5038 30.4518 16.4281 30.5017 16.3713C30.5949 16.2593 30.7584 16.0712 30.979 15.8714L31.0251 15.8297L38.7429 9.02749C39.4504 8.40322 40.31 7.97552 41.2346 7.78796L41.5824 7.72944C42.3968 7.61918 43.2272 7.69695 44.0096 7.95826L53.7691 11.2171L53.8099 11.231C54.0464 11.3125 54.2386 11.4011 54.3633 11.4618C54.3695 11.4646 54.3778 11.4686 54.3868 11.4727C54.4194 11.4879 54.4929 11.5224 54.5829 11.5689C54.6286 11.5924 54.6838 11.6218 54.7459 11.6569L54.9511 11.7799L55.1049 11.8818C55.3827 12.073 55.5813 12.2522 55.6586 12.3233C55.665 12.3292 55.6716 12.3355 55.678 12.3415C55.782 12.4339 55.9187 12.5645 56.0651 12.7272L56.0675 12.7257C56.0909 12.7517 56.1124 12.7784 56.1342 12.8037C56.1509 12.8231 56.169 12.8416 56.1857 12.8617L56.184 12.8621C56.3696 13.0842 56.4969 13.2729 56.5599 13.371C56.5699 13.3865 56.5788 13.4017 56.5874 13.4154C56.6002 13.4347 56.6147 13.4543 56.6283 13.4755C56.6986 13.5854 56.7845 13.734 56.8744 13.9138L56.877 13.9132C56.8848 13.9288 56.891 13.945 56.8987 13.9606C56.9038 13.9712 56.9101 13.9816 56.9153 13.9924L56.9135 13.9927C57.1044 14.3902 57.2481 14.8089 57.3368 15.241L59.3629 25.2294C59.5512 26.1577 59.4911 27.1195 59.1887 28.0171C58.8871 28.9125 58.3543 29.7119 57.6455 30.3364L52.2622 35.0831L53.6674 42.0106C54.0493 43.8935 53.3985 45.8334 51.9653 47.1062C51.961 47.11 51.9571 47.1142 51.9529 47.1179L36.5133 60.7259C36.5068 60.7316 36.5004 60.738 36.4938 60.7437C36.2548 60.9519 36.0412 61.0974 35.9131 61.1805C35.8983 61.19 35.8827 61.1987 35.8678 61.2081C35.8613 61.2125 35.8552 61.2178 35.8485 61.2222C35.7332 61.2981 35.5568 61.4052 35.3329 61.5154L35.334 61.5161C34.5 61.9268 33.574 62.1146 32.6459 62.0614C32.6324 62.0606 32.6184 62.0604 32.6049 62.0595C32.3885 62.0452 32.209 62.0179 32.0824 61.9954C32.0726 61.9936 32.0629 61.991 32.0535 61.9892C32.044 61.9877 32.034 61.9867 32.0239 61.9851C31.8817 61.9614 31.6014 61.9098 31.265 61.7988C31.2602 61.7972 31.2549 61.7951 31.2501 61.7935L11.7329 55.2763C10.837 54.9772 10.0351 54.4474 9.40863 53.7406C8.7811 53.0325 8.35125 52.1709 8.16252 51.2437L2.09057 21.3096C1.99219 20.8246 1.96836 20.3612 1.9921 19.9354C2.00694 19.6664 2.04151 19.4473 2.06909 19.3031C2.06956 19.3007 2.06985 19.2978 2.07032 19.2954C2.07151 19.2883 2.07289 19.2808 2.07417 19.2734C2.09851 19.1325 2.14834 18.8779 2.24729 18.5726L2.26174 18.5299C2.33341 18.3159 2.40878 18.1408 2.46789 18.0147C2.47803 17.9931 2.4892 17.9728 2.49882 17.953C2.50046 17.9494 2.50225 17.9455 2.50394 17.9418C2.55294 17.8351 2.66126 17.6058 2.83175 17.3381L2.87758 17.2678C3.00081 17.0818 3.11718 16.9344 3.20407 16.8308C3.22795 16.8024 3.25184 16.7764 3.27316 16.7521C3.37712 16.6266 3.55727 16.4207 3.80511 16.2022L11.5243 9.39793C12.2314 8.77499 13.0903 8.34804 14.0138 8.16072L14.3615 8.10219ZM36.0597 61.074C36.0465 61.0837 35.9944 61.1201 35.9228 61.1692C35.9538 61.1482 35.9802 61.1312 35.9992 61.1177C36.031 61.0952 36.0553 61.0776 36.0638 61.0713L36.067 61.0688C36.0654 61.07 36.0626 61.0718 36.0597 61.074ZM55.641 12.3093C55.6481 12.3156 55.6551 12.3218 55.6613 12.3274L55.641 12.3093L55.5526 12.2338C55.5765 12.2536 55.6062 12.279 55.641 12.3093ZM29.3289 13.7301C29.2905 13.6728 29.2591 13.6286 29.2388 13.6005C29.2299 13.5882 29.2214 13.5774 29.2147 13.5684C29.2347 13.5953 29.2768 13.6538 29.3289 13.7301ZM2.11349 19.0981C2.10726 19.1251 2.09926 19.1627 2.08981 19.2092C2.10719 19.1272 2.1213 19.0648 2.12755 19.0397C2.12416 19.0535 2.11906 19.074 2.11349 19.0981ZM27.3357 11.9303C27.3411 11.9332 27.3384 11.9317 27.3408 11.933L27.3223 11.9238C27.3278 11.9267 27.3328 11.9288 27.3357 11.9303Z" fill="#F9F4DA"/>
<path fill-rule="evenodd" clip-rule="evenodd" d="M52.7281 15.9895C52.7574 16.048 52.7789 16.1102 52.7921 16.1744L54.8159 26.1515C54.8419 26.2795 54.8336 26.4122 54.7919 26.536C54.7502 26.6598 54.6765 26.7705 54.5784 26.8567L47.1824 33.3766L49.1208 42.9327C49.1735 43.1928 49.084 43.4609 48.885 43.6375L33.4462 57.2459C33.4108 57.2767 33.3701 57.3001 33.3296 57.3244C33.3143 57.3332 33.3009 57.3464 33.2845 57.3544C33.1689 57.4114 33.0404 57.4374 32.9117 57.43C32.8906 57.4286 32.8702 57.4214 32.8496 57.418C32.8067 57.4116 32.7622 57.4073 32.7196 57.3932L13.2021 50.8756C13.0782 50.8344 12.9673 50.7611 12.8806 50.6634C12.794 50.5656 12.7346 50.4467 12.7086 50.3187L6.63716 20.3873C6.62388 20.3218 6.62007 20.2563 6.62389 20.1912C6.6251 20.1691 6.63396 20.1475 6.63699 20.1251C6.64289 20.0841 6.64769 20.0424 6.6605 20.0029C6.66934 19.9765 6.68547 19.9533 6.69741 19.9282C6.71243 19.8949 6.72544 19.861 6.74482 19.8305C6.76149 19.8054 6.78564 19.7844 6.80559 19.7614C6.82754 19.7342 6.84638 19.7058 6.87289 19.6824L14.5919 12.8784C14.6896 12.7922 14.8082 12.7333 14.9359 12.7074C15.0635 12.6815 15.1958 12.6896 15.3193 12.7308L25.0785 15.9895L25.0803 15.9892C25.1131 16.0014 25.1423 16.0192 25.1729 16.0348C25.2002 16.0481 25.2299 16.0592 25.2549 16.0749C25.2857 16.0961 25.31 16.1224 25.3377 16.1471C25.3576 16.1658 25.3824 16.1807 25.3999 16.2017C25.4282 16.2339 25.4478 16.2696 25.4701 16.3049C25.4816 16.3243 25.4982 16.3408 25.5081 16.3616C25.5374 16.4201 25.5589 16.4823 25.5721 16.5464L29.3642 35.2413L35.7956 29.5713L33.857 20.0143C33.8441 19.9506 33.8401 19.8842 33.8441 19.82C33.8461 19.7969 33.854 19.7754 33.857 19.753C33.8638 19.7118 33.8686 19.6701 33.8814 19.6306C33.8903 19.6042 33.9064 19.5811 33.9175 19.5561C33.9334 19.5226 33.9455 19.4889 33.9658 19.4583C33.9824 19.4331 34.0057 19.4123 34.0256 19.3893C34.0485 19.3619 34.0673 19.3335 34.0929 19.3103L41.8128 12.5061C41.9105 12.4199 42.0291 12.3609 42.1568 12.335C42.2845 12.3091 42.4167 12.3172 42.5403 12.3585L52.2995 15.6172C52.3341 15.6292 52.3623 15.6471 52.3939 15.6625C52.4203 15.6761 52.45 15.6871 52.4749 15.7028C52.5058 15.724 52.53 15.7504 52.5578 15.775C52.5785 15.7935 52.6024 15.8086 52.62 15.8296C52.6481 15.8609 52.6678 15.8976 52.6901 15.9328C52.7025 15.9521 52.7182 15.9687 52.7281 15.9895ZM53.2738 26.026L51.5908 17.7293L48.8899 20.11L45.1586 23.3994L46.8415 31.6961L53.2747 26.0258L53.2738 26.026ZM47.5795 42.807L45.8955 34.5048L42.2213 37.7211L31.7284 46.9009L33.4283 55.2812L47.5795 42.807ZM8.34937 21.3512L14.0799 49.6022L31.9713 55.5758L30.2718 47.1973L20.9415 44.1583L20.9384 44.157L20.9344 44.1559C20.9029 44.1453 20.8745 44.1264 20.8441 44.1118C20.8176 44.0982 20.7883 44.089 20.7643 44.0731L20.7619 44.0707C20.7336 44.0528 20.7115 44.0279 20.6864 44.0065C20.6632 43.9856 20.6371 43.9691 20.6174 43.9466L20.616 43.9441C20.5941 43.9201 20.5774 43.8894 20.5593 43.8609C20.542 43.836 20.5213 43.8137 20.5082 43.7861C20.4921 43.7534 20.4827 43.7164 20.4719 43.6817C20.4627 43.6552 20.4499 43.6294 20.4443 43.6021L20.444 43.6003L16.4818 24.067L11.7644 22.4904L8.34937 21.3512ZM15.2549 14.2757L8.8241 19.9437L16.9534 22.6582L23.3831 16.9895L15.2531 14.276L15.2549 14.2757ZM24.3469 39.6635L28.0775 36.3752L24.3708 18.1014L21.6698 20.4821L17.9385 23.7715L21.6452 42.0454L24.3469 39.6635ZM42.475 13.9036L36.045 19.5714L44.1753 22.2858L50.6041 16.6172L42.475 13.9036ZM43.7027 23.6947L38.9846 22.1193L35.5694 20.9791L37.2523 29.2758L41.9694 30.8506L45.3857 31.9914L43.7027 23.6947ZM30.7436 45.7894L40.1853 37.5272L44.9051 33.3983L36.7809 30.6855L29.3832 37.2067L22.6409 43.1499L30.7436 45.7894Z" fill="#FF2D20"/>
</g>
<defs>
<filter id="filter0_d_844_455" x="1.98364" y="7.68082" width="61.5366" height="58.4394" filterUnits="userSpaceOnUse" color-interpolation-filters="sRGB">
<feFlood flood-opacity="0" result="BackgroundImageFix"/>
<feColorMatrix in="SourceAlpha" type="matrix" values="0 0 0 0 0 0 0 0 0 0 0 0 0 0 0 0 0 0 127 0" result="hardAlpha"/>
<feOffset dx="4.05" dy="4.05"/>
<feComposite in2="hardAlpha" operator="out"/>
<feColorMatrix type="matrix" values="0 0 0 0 1 0 0 0 0 0.176471 0 0 0 0 0.12549 0 0 0 1 0"/>
<feBlend mode="normal" in2="BackgroundImageFix" result="effect1_dropShadow_844_455"/>
<feBlend mode="normal" in="SourceGraphic" in2="effect1_dropShadow_844_455" result="shape"/>
</filter>
</defs>
</svg>
