<svg width="73" height="72" viewBox="0 0 73 72" fill="none" xmlns="http://www.w3.org/2000/svg">
<g filter="url(#filter0_d_844_469)">
<path d="M56.13 15.7074C57.4933 16.3431 58.7081 17.288 59.614 18.6501C59.6193 18.6579 59.6248 18.6662 59.63 18.674C59.6338 18.6797 59.6376 18.6854 59.6413 18.6911C61.1627 20.9734 61.3128 23.6395 60.8036 26.0889C60.3035 28.494 59.1209 30.9868 57.5061 33.4509C61.1187 37.451 63.6617 42.5805 61.3869 47.459C59.1121 52.3374 53.548 53.6865 48.1616 53.4903C47.3193 56.2962 46.1739 58.7939 44.6543 60.7212C43.096 62.6975 40.9521 64.295 38.225 64.6142L38.2248 64.6137C36.5812 64.8067 35.0609 64.4836 33.6845 63.8418C31.6058 62.8724 29.9787 61.1357 28.7238 59.2686C28.0569 58.2762 27.4452 57.1719 26.8874 55.9831C25.6233 56.322 24.3868 56.5646 23.1975 56.6916C20.9486 56.9318 18.5683 56.7929 16.4796 55.819C15.116 55.1831 13.9011 54.238 12.995 52.8756C12.989 52.8667 12.9831 52.8577 12.9771 52.8488C12.9741 52.8442 12.9709 52.8396 12.9679 52.835C11.4469 50.5529 11.2968 47.8867 11.806 45.4374C12.3061 43.0321 13.4886 40.5386 15.1036 38.0742C11.5384 34.1073 8.94308 28.9559 11.2228 24.067C13.4976 19.1889 19.0613 17.8393 24.4474 18.0354C25.2897 15.2297 26.4358 12.7323 27.9553 10.8052C29.4649 8.89056 31.5241 7.33144 34.1307 6.94569L34.3846 6.91211C36.0282 6.71916 37.5487 7.04276 38.925 7.68456C41.0038 8.65393 42.6309 10.3907 43.8857 12.2577C44.555 13.2534 45.1684 14.3619 45.7277 15.5552C47.0015 15.2166 48.2451 14.9742 49.4381 14.8468C51.6749 14.608 54.0512 14.738 56.13 15.7074Z" fill="#F9F4DA"/>
<path d="M34.3446 39.9667C36.5198 40.981 39.1607 39.9212 40.2433 37.5996C41.3258 35.278 40.4401 32.5738 38.2649 31.5595C36.0898 30.5452 33.4488 31.6049 32.3663 33.9265C31.2837 36.2481 32.1694 38.9524 34.3446 39.9667Z" fill="#020202"/>
<path d="M54.4968 35.8066C53.8743 35.1572 53.2172 34.4916 52.5084 33.8469C53.1284 33.0586 53.7138 32.2542 54.2475 31.4705C57.2426 26.9415 58.0471 23.1417 56.455 20.7832C55.9877 20.0715 55.3482 19.5488 54.519 19.1622C52.1007 18.0345 48.1318 18.5181 43.5265 20.2762C41.9131 15.6183 39.7324 12.2671 37.314 11.1393C36.4849 10.7527 35.6734 10.5988 34.8278 10.6983C31.9805 11.0316 29.5868 14.0903 28.0599 19.259C27.8026 20.1716 27.5627 21.1371 27.3573 22.1187C26.4078 21.9902 25.4928 21.8778 24.578 21.8552C19.4341 21.6114 15.95 22.9496 14.6776 25.6782C13.4052 28.4069 14.6542 31.9521 18.1129 35.7197C18.7354 36.3691 19.3924 37.0346 20.1012 37.6794C19.4813 38.4677 18.8959 39.2721 18.3622 40.0558C15.367 44.5848 14.5625 48.3846 16.1546 50.7431C16.6219 51.4548 17.2614 51.9774 18.0906 52.3641C20.5435 53.5079 24.5124 53.0243 29.0832 51.2501C30.6966 55.908 32.8773 59.2592 35.2956 60.3869C36.1248 60.7736 36.9363 60.9275 37.7818 60.828C40.6291 60.4947 43.0228 57.436 44.5498 52.2672C44.8071 51.3547 45.047 50.3892 45.2524 49.4076C46.2019 49.5361 47.1168 49.6485 48.0317 49.6711C53.1755 49.9149 56.6596 48.5767 57.932 45.8481C59.2044 43.1194 57.99 39.5903 54.4968 35.8066ZM54.6279 22.1758C55.6318 23.7213 54.843 26.6755 52.4503 30.2733C51.9856 30.9994 51.4346 31.73 50.8318 32.4815C49.2416 31.2013 47.479 30.0202 45.5612 28.9015C45.2119 26.5838 44.7421 24.4344 44.2035 22.4324C48.0152 20.9328 51.4661 20.2974 53.5735 21.2801C54.0226 21.4895 54.3856 21.7935 54.6279 22.1758ZM40.5622 42.2375C39.3901 43.1275 38.1144 43.9692 36.8041 44.7947C35.4742 44.3092 34.1788 43.75 32.8659 43.1379C31.5185 42.5096 30.2575 41.8766 29.0653 41.186C28.8555 39.6517 28.7147 38.1495 28.6431 36.6796C28.5541 35.1566 28.5168 33.6129 28.5315 32.1384C29.6517 31.1793 30.8581 30.2156 32.082 29.3048C33.2541 28.4149 34.5298 27.5732 35.8401 26.7477C37.17 27.2331 38.4654 27.7923 39.7783 28.4045C41.1256 29.0328 42.3867 29.6658 43.5789 30.3563C43.7887 31.8907 43.9295 33.3929 44.0011 34.8628C44.0901 36.3857 44.1274 37.9294 44.1127 39.404C42.958 40.347 41.8033 41.2899 40.5622 42.2375ZM43.9971 42.3579C43.9136 43.8901 43.7435 45.3371 43.539 46.768C42.2268 46.5153 40.8799 46.1565 39.481 45.7287C40.2223 45.2215 41.0153 44.6934 41.7564 44.0963C42.5321 43.5153 43.2732 42.9181 43.9971 42.3579ZM30.4931 48.2264C30.111 46.8811 29.7978 45.4781 29.5364 44.0543C30.3138 44.4617 31.0912 44.8691 31.8858 45.2397C32.6805 45.6102 33.4923 45.9439 34.3041 46.2775C33.0454 46.9924 31.7693 47.6544 30.4931 48.2264ZM26.6463 39.6989C25.4194 38.9023 24.2789 38.1011 23.2418 37.2584C24.1892 36.2188 25.2056 35.1215 26.3256 34.0726C26.3618 34.9873 26.3807 35.9388 26.4514 36.8696C26.4877 37.8742 26.5756 38.7681 26.6463 39.6989ZM28.6125 29.1684C28.6961 27.6362 28.8661 26.1892 29.0707 24.7582C30.3829 25.011 31.7298 25.3697 33.1286 25.7975C32.3873 26.3048 31.5943 26.8329 30.8532 27.43C30.0775 28.011 29.3364 28.6081 28.6125 29.1684ZM42.1166 23.2998C42.4987 24.6452 42.8118 26.0482 43.0732 27.472C42.2958 27.0645 41.5184 26.6571 40.7238 26.2866C39.9292 25.9161 39.1174 25.5824 38.3056 25.2488C39.5643 24.5338 40.8403 23.8719 42.1166 23.2998ZM46.1754 34.6198L45.9634 31.8274C47.1902 32.6239 48.3308 33.4251 49.3679 34.2679C48.4204 35.3075 47.404 36.4047 46.284 37.4537C46.2651 36.5021 46.2461 35.5505 46.1754 34.6198ZM30.1321 19.8662C31.3502 15.7206 33.1063 13.2175 34.9354 12.993C35.3841 12.9329 35.8503 13.0156 36.2994 13.225C38.3723 14.1916 40.1209 17.2067 41.4396 21.1436C39.577 21.981 37.6113 23.0395 35.6113 24.2617C33.5215 23.5117 31.4666 22.9575 29.481 22.5254C29.6692 21.5807 29.9092 20.705 30.1321 19.8662ZM16.6123 26.5804C17.4205 24.8473 20.2494 23.9219 24.3405 24.1686C25.169 24.1958 26.0494 24.2921 26.9126 24.4253C26.6057 26.5267 26.3853 28.8032 26.3032 31.1442C24.5627 32.7118 22.9431 34.291 21.5651 35.893C17.4853 32.1948 15.6494 28.6453 16.6123 26.5804ZM17.9817 49.3505C16.9779 47.805 17.7666 44.8508 20.1593 41.2529C20.6241 40.5269 21.1751 39.7962 21.7779 39.0448C23.368 40.325 25.1306 41.5061 27.0485 42.6248C27.3978 44.9425 27.8676 47.0919 28.4062 49.0938C24.5944 50.5935 21.1436 51.2289 19.0361 50.2462C18.587 50.0367 18.224 49.7328 17.9817 49.3505ZM42.4775 51.6601C41.2594 55.8057 39.5034 58.3088 37.6742 58.5332C37.2256 58.5934 36.7594 58.5107 36.3103 58.3012C34.2374 57.3346 32.4888 54.3196 31.1701 50.3826C33.0326 49.5453 34.9984 48.4867 36.9984 47.2645C39.0881 48.0145 41.143 48.5687 43.1287 49.0009C42.9405 49.9456 42.7004 50.8213 42.4775 51.6601ZM48.2692 47.3577C47.4407 47.3305 46.5603 47.2342 45.697 47.101C46.004 44.9995 46.2243 42.723 46.3065 40.3821C48.0469 38.8144 49.6666 37.2353 51.0445 35.6333C55.1244 39.3314 56.9602 42.881 55.9973 44.9459C55.1892 46.679 52.3257 47.5883 48.2692 47.3577Z" fill="#020202"/>
</g>
<defs>
<filter id="filter0_d_844_469" x="10.3646" y="6.85669" width="55.9356" height="61.8625" filterUnits="userSpaceOnUse" color-interpolation-filters="sRGB">
<feFlood flood-opacity="0" result="BackgroundImageFix"/>
<feColorMatrix in="SourceAlpha" type="matrix" values="0 0 0 0 0 0 0 0 0 0 0 0 0 0 0 0 0 0 127 0" result="hardAlpha"/>
<feOffset dx="4.05" dy="4.05"/>
<feComposite in2="hardAlpha" operator="out"/>
<feColorMatrix type="matrix" values="0 0 0 0 1 0 0 0 0 0.2 0 0 0 0 0.2 0 0 0 1 0"/>
<feBlend mode="normal" in2="BackgroundImageFix" result="effect1_dropShadow_844_469"/>
<feBlend mode="normal" in="SourceGraphic" in2="effect1_dropShadow_844_469" result="shape"/>
</filter>
</defs>
</svg>
