<svg width="72" height="72" viewBox="0 0 72 72" fill="none" xmlns="http://www.w3.org/2000/svg">
<g filter="url(#filter0_d_844_452)">
<path d="M23.6436 11.6374C24.6406 10.3519 26.1906 9.80341 27.6307 9.9634C27.8826 9.99134 28.1085 10.044 28.291 10.0973C28.6519 9.70007 29.1491 9.29881 29.8297 9.02583L29.978 8.9691C30.7502 8.68838 31.9666 8.46907 33.3027 9.09176C33.3319 9.10536 33.3604 9.12008 33.389 9.13424C33.5859 8.97843 33.9198 8.74645 34.3534 8.5725L34.519 8.50921C34.9443 8.356 35.6392 8.17434 36.4877 8.27568C37.42 8.387 38.1323 8.78756 38.6232 9.17706C38.7089 9.13433 38.8014 9.0915 38.8999 9.05202L39.0872 8.98237C40.0164 8.66518 40.8296 8.78653 41.0238 8.81416C41.3727 8.86381 41.7354 8.9555 42.0896 9.09266L42.2406 9.15416L42.5647 9.29266C43.0835 9.51446 43.5379 9.84951 43.9014 10.2651C44.1997 10.1984 44.5351 10.1562 44.9026 10.1622C45.5432 10.1726 46.0524 10.3285 46.3426 10.435L46.4534 10.477L46.454 10.4776C46.4682 10.483 47.1003 10.7016 47.6864 11.187C48.1253 11.5506 48.4289 11.9555 48.641 12.3319C49.1042 12.3051 49.6383 12.3488 50.2127 12.5437L50.3195 12.5815L50.3203 12.5816C51.0212 12.8406 51.7018 13.2997 52.2275 13.994C52.5708 14.4474 52.7767 14.9097 52.9056 15.307C53.5465 15.3895 54.3624 15.6346 55.1081 16.2739C55.8558 16.915 56.1794 17.6618 56.3037 17.9718C56.4561 18.3518 56.543 18.7183 56.5871 19.0619C57.2598 19.2829 58.1328 19.736 58.7781 20.6889C59.4636 21.7013 59.5313 22.7373 59.4602 23.4647C60.0943 23.8307 60.8809 24.4779 61.3127 25.5953C61.7264 26.6661 61.6069 27.6392 61.4047 28.3263C61.9648 28.8135 62.6445 29.6312 62.835 30.8709C63.005 31.977 62.698 32.8846 62.3689 33.5053C62.7107 33.9557 63.096 34.6285 63.2218 35.5175C63.3663 36.5388 63.1072 37.3933 62.8219 37.9763L62.8217 37.9768C62.6737 38.2791 62.4936 38.5366 62.3279 38.7399C62.4969 39.0951 62.6487 39.5295 62.7161 40.0377C62.8259 40.8652 62.6735 41.5724 62.4812 42.0922L62.4797 42.0955C62.3626 42.4112 62.1292 42.9386 61.6483 43.4629C61.5252 43.5971 61.3993 43.7145 61.2774 43.8183C61.3748 44.1831 61.4398 44.621 61.4108 45.1168C61.3645 45.9096 61.0788 46.5198 61.0546 46.5762C60.8851 46.9728 60.5771 47.5448 60.0007 48.0708C59.7586 48.2917 59.5113 48.4657 59.2763 48.6036C59.2991 49.1536 59.201 49.7078 58.9791 50.2248L58.8459 50.5346C58.6675 50.955 58.4338 51.3339 58.1794 51.6527C58.0369 51.8312 57.4759 52.5351 56.4912 52.9301C56.3955 52.9685 56.3016 53.0004 56.2127 53.0281C56.1304 53.6013 55.9186 54.3181 55.4048 55.0044C54.8103 55.7985 54.0722 56.2034 53.5531 56.4116C53.1196 56.5855 52.7274 56.6464 52.4998 56.6697C52.4721 56.7514 52.4397 56.8373 52.4025 56.9256L52.4034 56.926C52.4016 56.9303 52.3993 56.9343 52.3975 56.9385C52.3959 56.9423 52.3947 56.9463 52.3931 56.9501L52.3926 56.9499C52.02 57.8166 51.4235 58.3338 51.1937 58.5222C50.8709 58.7871 50.4653 59.0457 49.9903 59.2362C49.6038 59.3912 49.0884 59.5359 48.4633 59.5446C48.3198 59.5466 48.1826 59.5411 48.0526 59.5305C47.6948 60.1405 47.0782 60.883 46.0358 61.3185C44.935 61.7784 43.9283 61.6619 43.2268 61.4602C42.8907 61.8431 42.4137 62.2585 41.7544 62.5516C40.9154 62.9248 40.1537 62.9334 39.7127 62.9045C39.0557 62.8615 38.5087 62.6716 38.0737 62.4489C37.8871 62.5955 37.5565 62.8274 37.1201 63.0024C36.7444 63.1531 35.9819 63.4119 35.0157 63.3044C34.0692 63.1992 33.3456 62.794 32.848 62.3988C32.7626 62.4413 32.6703 62.4845 32.5718 62.524C31.605 62.9118 30.7305 62.802 30.4941 62.7715C30.0903 62.7195 29.6558 62.6095 29.23 62.427C29.2139 62.4201 29.0777 62.363 28.9358 62.2926C28.7713 62.2109 28.5271 62.0775 28.2594 61.8747C28.0173 61.6913 27.8148 61.4958 27.6452 61.3016C26.9369 61.4819 25.9919 61.5463 24.9625 61.1073L24.9518 61.103C24.6005 60.9524 24.0544 60.6714 23.5366 60.1397C23.235 59.8301 23.0137 59.5068 22.848 59.2054C22.1215 59.2538 21.0709 59.1585 20.0675 58.4289C19.175 57.7798 18.7483 56.9377 18.5388 56.2694C17.9479 56.1909 17.1804 55.9706 16.4576 55.3912C15.665 54.7558 15.3163 53.9935 15.171 53.6312C15.0158 53.2444 14.9331 52.8707 14.8926 52.5324C14.2221 52.3118 13.3562 51.862 12.7119 50.9201C12.0263 49.9179 11.9483 48.8902 12.0138 48.1609C11.5597 47.8891 11.0916 47.4951 10.709 46.9256C10.4811 46.5865 10.3475 46.2776 10.2732 46.0868C10.2055 45.9132 10.1545 45.7484 10.1436 45.7142L10.143 45.7125C10.1401 45.7034 9.94917 45.1671 9.91987 44.5269C9.8984 44.0575 9.95834 43.6354 10.0566 43.2687C9.50445 42.7917 8.84483 41.9992 8.64086 40.8025C8.4453 39.6549 8.77142 38.715 9.10882 38.0898C8.73717 37.5961 8.35591 36.884 8.25745 35.9623C8.1548 35.0013 8.40677 34.2329 8.59709 33.7884C8.69358 33.5629 8.81534 33.3225 8.9614 33.0897C9.00335 33.0228 9.06292 32.9322 9.13908 32.8282C8.82972 32.1835 8.56428 31.2574 8.79244 30.1511C9.02074 29.0441 9.63317 28.2975 10.1685 27.8291C10.0081 27.2157 10.0038 26.5644 10.1697 25.9373L10.2521 25.6268C10.3556 25.2345 10.574 24.5927 11.0912 23.9593C11.4595 23.5082 11.8727 23.1903 12.2586 22.9651C12.2448 22.6996 12.2551 22.4084 12.3053 22.0971C12.3588 21.7651 12.4435 21.4996 12.5062 21.3266C12.5606 21.1765 12.6199 21.0404 12.6263 21.0252C12.8023 20.6132 13.0323 20.2408 13.2835 19.9257C13.4231 19.7506 13.9829 19.0461 14.9683 18.6508L15.1481 18.5838C15.1858 18.5709 15.2232 18.5597 15.2595 18.5485C15.3437 17.934 15.5778 17.1535 16.1724 16.4279C16.7947 15.6686 17.5299 15.3203 17.9219 15.163L18.0455 15.1159C18.4232 14.98 18.7668 14.9263 18.9926 14.9043C19.0628 14.7032 19.1715 14.4429 19.335 14.1725C19.3363 14.1703 19.3378 14.1682 19.3391 14.1661C19.7299 13.5227 20.2252 13.1286 20.4385 12.9683C20.7159 12.7598 21.0705 12.5405 21.4882 12.3696L21.498 12.3657C22.1693 12.0925 22.8028 12.0286 23.3577 12.0651C23.435 11.9316 23.5294 11.7846 23.6436 11.6374ZM56.4373 49.3028L56.4094 49.1219L56.4089 49.1217L56.4373 49.3028ZM31.4746 52.8142L31.4753 52.8139L31.5334 52.4681L31.4746 52.8142ZM43.4488 46.3263C43.3266 46.6551 43.1585 46.9661 42.9486 47.2493C43.0393 47.1925 43.1294 47.1353 43.2179 47.0767L43.4463 46.9182C43.6113 46.7995 43.8121 46.6472 44.0296 46.4768C43.9073 46.4528 43.7835 46.4245 43.6587 46.39C43.5884 46.3707 43.5182 46.349 43.4488 46.3263Z" fill="#F9F4DA"/>
<path d="M26.5827 13.9168C26.5213 13.9955 26.3789 14.6109 26.2658 15.285C25.9829 16.9774 25.9742 16.9817 24.3914 16.2568C23.3616 15.7854 23.1307 15.7161 22.8984 15.8113C22.7467 15.8729 22.5759 16.0016 22.518 16.0969C22.4604 16.1922 22.425 16.7802 22.4395 17.404C22.4733 18.833 22.4672 18.8816 22.2296 19.0346C22.0828 19.1283 21.7098 19.0804 20.7672 18.8485C20.0712 18.6769 19.4139 18.5718 19.3066 18.6149C18.8609 18.7936 18.833 19.0877 19.1322 20.4481C19.5133 22.1775 19.52 22.1684 17.7922 22.0908C17.0944 22.0597 16.4473 22.0647 16.3531 22.1025C16.2585 22.1405 16.1204 22.3137 16.0465 22.4872C15.9117 22.8025 15.9118 22.8037 16.4704 24.0187L17.0296 25.235L16.8453 25.4548C16.682 25.6494 16.5334 25.6934 15.5254 25.8448C14.2102 26.0429 13.9592 26.1524 13.8477 26.5778L13.7656 26.8885L14.4148 27.8158C14.7717 28.3259 15.1151 28.8173 15.1786 28.9068C15.2415 28.9966 15.2647 29.1713 15.2301 29.2949C15.172 29.4978 15.0503 29.563 13.9313 29.9922C12.037 30.7175 11.9951 30.9219 13.4534 32.3078C13.917 32.747 14.3161 33.1556 14.3396 33.2143C14.4641 33.5246 14.2617 33.7364 13.2692 34.3361C12.7135 34.6712 12.2289 34.9577 12.1916 34.9727C12.1547 34.9875 12.0757 35.1133 12.0164 35.2521C11.8225 35.705 12.0362 35.9719 13.1845 36.7127C14.6151 37.6357 14.6156 37.6411 13.3379 38.8236C11.8852 40.1685 11.9152 40.344 13.7188 41.0592C15.3987 41.7255 15.3936 41.7079 14.3633 43.1266C13.5822 44.2005 13.5727 44.2227 13.6887 44.589C13.8301 45.0344 13.8407 45.0389 15.3919 45.3004C16.9261 45.5586 16.9352 45.5814 16.1848 47.2104C15.3776 48.9625 15.4896 49.1259 17.4669 49.085C19.1945 49.0493 19.1994 49.0553 18.8013 50.7114C18.5759 51.6501 18.5327 52.0209 18.6232 52.2467C18.7925 52.6689 19.0556 52.6884 20.4573 52.3823C21.6384 52.1249 21.9288 52.1355 22.0512 52.4406C22.0764 52.5035 22.0714 53.0785 22.0399 53.7183C21.9423 55.709 22.0864 55.8135 23.9132 55.0808C25.6147 54.3984 25.5487 54.3647 25.7974 56.0458C25.9851 57.313 26.0695 57.5365 26.4199 57.6857C26.6881 57.8009 27.0406 57.6347 28.061 56.9116C28.8411 56.3599 28.9866 56.2851 29.2293 56.3116L29.5065 56.3422L29.9427 57.6075C30.3787 58.8725 30.3793 58.873 30.6948 59.0082C30.8681 59.0825 31.0902 59.1109 31.1872 59.072C31.2846 59.0329 31.7568 58.5906 32.2369 58.0883C33.4284 56.8426 33.4172 56.8407 34.3344 58.349C35.0612 59.5447 35.2809 59.7327 35.7355 59.5503C35.8484 59.505 36.2454 58.9932 36.6174 58.412C37.2714 57.391 37.4678 57.1932 37.7742 57.2507C37.8529 57.2652 38.3126 57.7039 38.7952 58.2257C39.5049 58.993 39.7263 59.1783 39.9562 59.1931C40.3933 59.2217 40.5638 58.9894 41.0495 57.7046C41.6357 56.1527 41.6807 56.141 43.083 57.1775C44.632 58.3219 44.8737 58.2209 45.2151 56.2867C45.5093 54.6203 45.4999 54.6248 47.0904 55.3462C48.1466 55.8242 48.3548 55.8849 48.6058 55.7843C48.766 55.72 48.9333 55.5828 48.9767 55.48C49.0211 55.3769 49.047 54.7361 49.0339 54.0561C49.0212 53.376 49.0469 52.7686 49.0917 52.7065C49.2685 52.4609 49.5563 52.4681 50.7316 52.7508C51.4236 52.9173 52.0482 53.0078 52.1686 52.9595C52.616 52.7801 52.6502 52.3977 52.3355 51.0756C52.0676 49.948 52.0591 49.8328 52.2257 49.6429C52.3897 49.4562 52.5274 49.4418 53.6684 49.4931C54.3622 49.5234 55.0096 49.517 55.1066 49.4781C55.204 49.439 55.3465 49.2608 55.4223 49.0821L55.5615 48.7578L55.0206 47.593C54.5038 46.4815 54.4852 46.418 54.6003 46.1815C54.7191 45.9383 54.7387 45.9312 55.8764 45.7514C57.2541 45.5334 57.4926 45.4466 57.6346 45.1143C57.7734 44.7898 57.7506 44.74 56.8974 43.5302C55.9403 42.1729 55.9141 42.2455 57.6222 41.5604C58.7869 41.0932 58.91 41.0246 58.9928 40.8014C59.1309 40.4283 58.946 40.1382 58.0218 39.2758C57.5556 38.8417 57.1563 38.4367 57.1338 38.3756C57.0156 38.0568 57.2204 37.8492 58.2924 37.2028C58.9487 36.8078 59.4205 36.4655 59.4813 36.3413C59.6846 35.9259 59.4173 35.5983 58.2808 34.87C56.8561 33.9575 56.8554 33.9438 58.0994 32.8201C59.5891 31.4748 59.5531 31.24 57.746 30.5213C56.0726 29.856 56.0744 29.8625 57.075 28.5155C58.2844 26.8871 58.1978 26.6641 56.2261 26.3173C54.5306 26.0195 54.5364 26.0309 55.2898 24.3874C56.0972 22.6237 55.9969 22.4756 54.0168 22.5076C52.2696 22.5355 52.2591 22.5233 52.673 20.8906C52.9193 19.9182 52.9553 19.6141 52.8518 19.3562C52.671 18.9054 52.4283 18.8857 51.0131 19.2041C49.831 19.4698 49.5429 19.4591 49.4163 19.1433C49.3922 19.0832 49.4013 18.5185 49.4364 17.8877C49.5046 16.6529 49.4058 16.2089 49.0314 16.0705C48.83 15.9962 48.6248 16.0561 47.5731 16.4983C46.4732 16.9611 46.3253 17.002 46.1098 16.9093C45.8745 16.8082 45.867 16.7835 45.69 15.5849C45.474 14.1163 45.4624 14.0833 45.0988 13.941C44.7295 13.7966 44.5637 13.8679 43.4496 14.651C42.6378 15.2218 42.4951 15.2955 42.2477 15.2681L41.9665 15.2366L41.5344 13.9745L41.1028 12.7126L40.7788 12.5741C40.6003 12.4978 40.3784 12.4661 40.2845 12.5038C40.1913 12.5412 39.7228 12.9856 39.2446 13.4908C38.4457 14.3346 38.3525 14.4068 38.0961 14.381C37.8405 14.3553 37.7614 14.26 37.1389 13.2305C36.4194 12.0392 36.1907 11.8428 35.7382 12.0243C35.6308 12.0673 35.2266 12.6001 34.8401 13.208C34.205 14.2065 34.11 14.3152 33.8565 14.3267C33.6468 14.3362 33.4838 14.2397 33.2136 13.9437C33.0142 13.7264 32.6309 13.3071 32.3616 13.0123C31.8177 12.4178 31.6082 12.3199 31.2143 12.4779C30.9944 12.5661 30.859 12.8039 30.4426 13.8309C29.7883 15.4458 29.784 15.4472 28.4167 14.4251C27.8702 14.0167 27.3321 13.6723 27.221 13.66C26.9705 13.6318 26.7279 13.7295 26.5827 13.9168ZM29.238 17.5797C30.4938 17.8831 30.6303 19.7262 29.4325 20.2066C28.2698 20.673 27.1226 19.5073 27.634 18.3793C27.9224 17.7427 28.5718 17.4185 29.238 17.5797ZM29.7418 22.3896C30.4798 22.3761 30.6839 22.1248 31.581 20.1291L32.2543 18.6288L32.7443 18.5044C34.2803 18.1128 37.6916 18.2232 39.8312 18.734C41.7972 19.2037 44.7179 20.5946 46.194 21.7641L46.5098 22.015L46.4309 24.1962C46.3872 25.3959 46.3941 26.4843 46.4467 26.6155C46.5683 26.9186 46.9595 27.3183 47.2143 27.4C47.322 27.4349 48.2376 27.4965 49.2485 27.5371L51.0857 27.6117L51.3061 27.9833C51.5925 28.4675 52.1113 29.731 52.1839 30.1198L52.2406 30.4241L51.3517 30.7806C50.3206 31.1942 50.3633 31.07 50.8146 32.3569C51.1416 33.2901 51.1232 33.8858 50.7513 34.4161C50.1451 35.2807 48.7506 35.7275 47.9209 35.3225C47.7934 35.2602 47.4251 34.8385 47.1016 34.3848C46.1572 33.0592 45.3493 32.4267 44.0679 32.0094C43.6633 31.8779 43.3209 31.7407 43.3065 31.7048C43.2924 31.6696 43.5129 31.2554 43.7973 30.7854C44.8324 29.0719 45.1635 27.4275 44.7396 26.1008C43.9321 23.569 41.0528 22.0626 37.8399 22.4885C37.0782 22.5896 36.7808 22.7025 28.2312 26.1317C23.3787 28.078 19.3954 29.6388 19.3799 29.6001C19.3435 29.5093 20.0021 28.0301 20.4267 27.2503C21.5928 25.1083 23.4036 23.0648 25.5075 21.5172L26.2344 20.9816L27.8567 21.6882C28.7492 22.0769 29.5977 22.3921 29.7418 22.3896ZM18.2388 35.7362C18.9097 35.8711 19.4781 36.6578 19.3747 37.3092C19.2159 38.317 18.0003 38.8442 17.1993 38.253C16.0349 37.394 16.836 35.4538 18.2388 35.7362ZM49.5569 23.2265C51.2866 23.5165 51.0457 26.0332 49.2938 25.9716C48.1244 25.9305 47.5477 24.5857 48.3208 23.7006C48.643 23.3309 49.1114 23.1519 49.5569 23.2265ZM24.433 39.327L26.5126 44.5119L21.9284 46.3506L21.4304 45.6347C20.4497 44.2247 19.6545 42.6778 19.2167 41.3254L18.9086 40.3754L20.201 39.0367C21.012 38.1973 21.5123 37.6043 21.5439 37.4462C21.6829 36.7556 21.4925 36.3788 20.5436 35.4698L20.1009 35.0455L22.3527 34.1423L24.4323 39.3272M35.6398 29.0746C36.7237 28.9364 37.4505 29.248 37.7441 29.9758C37.9592 30.5102 37.8289 30.9516 37.2904 31.5123C36.9095 31.9095 36.8377 31.9443 33.9146 33.15L30.9278 34.3816L29.6928 31.3024L32.3792 30.2249C34.4773 29.3834 35.1913 29.1315 35.6398 29.0746ZM37.6113 36.9213C38.1523 36.8614 38.8969 37.0533 39.3678 37.3741C39.8629 37.7113 40.2849 38.2389 41.5119 40.0551C42.5485 41.5905 43.0025 42.046 43.9428 42.4991C45.1076 43.0602 44.9056 43.1012 48.9493 41.4793C50.8859 40.7025 52.4822 40.0983 52.4974 40.1363C52.5247 40.2043 51.8235 42.3157 51.7659 42.3388C51.7493 42.3455 50.9942 42.4792 50.088 42.6355C47.5287 43.0778 47.4675 43.1708 47.9399 45.9143L48.243 47.6771L47.9909 47.9577C47.5707 48.4268 46.0806 49.6424 45.2709 50.1783C43.9318 51.0641 42.3845 51.8021 40.9416 52.2442C38.4811 52.9966 34.9602 53.3373 34.6236 52.8547C34.5525 52.7522 34.1007 52.0855 33.6209 51.3719C33.1406 50.6589 32.6404 50.0003 32.5091 49.9087C31.8803 49.47 31.4555 49.5979 29.8105 50.721C29.1878 51.1467 28.6407 51.5092 28.5952 51.5274C28.5096 51.5618 26.6526 50.6038 26.613 50.5051C26.6006 50.474 29.5991 49.2297 33.2767 47.7402L39.9628 45.032L39.033 42.6439C38.3766 40.9575 38.058 40.231 37.9501 40.1729C37.8297 40.1074 37.3876 40.255 35.8252 40.8817L33.8523 41.673L32.6948 38.7871L34.9723 37.874C36.2243 37.3727 37.4122 36.9435 37.6113 36.9213ZM31.6329 51.8755C32.9578 52.0975 33.129 54.002 31.8692 54.5057C30.578 55.0232 29.4235 53.5307 30.2544 52.418C30.5295 52.05 31.171 51.7979 31.6329 51.8755ZM51.1584 44.1265C51.8338 44.2996 52.3266 45.0257 52.2161 45.6855C51.9256 47.419 49.3579 47.1637 49.4794 45.4135C49.5394 44.5539 50.3621 43.9225 51.1584 44.1265Z" fill="black"/>
</g>
<defs>
<filter id="filter0_d_844_452" x="8.23376" y="8.24636" width="58.7794" height="58.8335" filterUnits="userSpaceOnUse" color-interpolation-filters="sRGB">
<feFlood flood-opacity="0" result="BackgroundImageFix"/>
<feColorMatrix in="SourceAlpha" type="matrix" values="0 0 0 0 0 0 0 0 0 0 0 0 0 0 0 0 0 0 127 0" result="hardAlpha"/>
<feOffset dx="3.75" dy="3.75"/>
<feComposite in2="hardAlpha" operator="out"/>
<feColorMatrix type="matrix" values="0 0 0 0 0.988235 0 0 0 0 0.729412 0 0 0 0 0.156863 0 0 0 1 0"/>
<feBlend mode="normal" in2="BackgroundImageFix" result="effect1_dropShadow_844_452"/>
<feBlend mode="normal" in="SourceGraphic" in2="effect1_dropShadow_844_452" result="shape"/>
</filter>
</defs>
</svg>
