<svg width="425" height="401" viewBox="0 0 425 401" fill="none" xmlns="http://www.w3.org/2000/svg">
<path d="M309.443 360.045C302.965 343.313 240.345 330.19 157.77 330.19C75.195 330.19 13.336 344.681 6.85803 361.413C14.754 372.277 75.195 388.875 157.77 388.875C240.345 388.874 298.718 372.703 309.443 360.045Z" fill="#383838"/>
<path d="M420.879 146.621C417.419 137.683 383.968 130.673 339.857 130.673C295.747 130.673 262.702 138.414 259.242 147.352C263.46 153.155 295.747 162.021 339.857 162.021C383.967 162.022 415.149 153.383 420.879 146.621Z" fill="#383838"/>
<path d="M261.743 184.356L326.354 189.963V173.644L261.743 168.037V184.356Z" fill="#F9F4DA"/>
<path d="M326.31 190.474L261.7 184.867C261.435 184.844 261.231 184.622 261.231 184.356V168.037C261.231 167.893 261.291 167.756 261.397 167.659C261.503 167.562 261.645 167.512 261.788 167.526L326.398 173.133C326.664 173.156 326.867 173.378 326.867 173.644V189.963C326.867 190.107 326.807 190.244 326.701 190.341C326.606 190.428 326.483 190.476 326.354 190.476C326.339 190.476 326.325 190.475 326.31 190.474ZM262.257 168.597V183.886L325.841 189.404V174.115L262.257 168.597Z" fill="#383838"/>
<path d="M247.728 189.427L312.338 195.034L326.354 189.927L261.743 184.321L247.728 189.427Z" fill="#F9F4DA"/>
<path d="M312.294 195.545L247.684 189.939C247.445 189.918 247.251 189.734 247.219 189.495C247.188 189.257 247.326 189.028 247.553 188.946L261.569 183.839C261.639 183.814 261.719 183.801 261.788 183.81L326.398 189.416C326.637 189.437 326.831 189.621 326.863 189.86C326.894 190.098 326.756 190.327 326.529 190.409L312.513 195.516C312.457 195.537 312.398 195.547 312.338 195.547C312.323 195.547 312.308 195.546 312.294 195.545ZM261.813 184.842L250.079 189.117L312.269 194.513L324.003 190.238L261.813 184.842Z" fill="#383838"/>
<path d="M247.728 205.747L312.338 211.353V195.034L247.728 189.427V205.747Z" fill="#F9F4DA"/>
<path d="M312.294 211.864L247.684 206.258C247.418 206.235 247.215 206.013 247.215 205.747V189.428C247.215 189.284 247.275 189.147 247.381 189.05C247.487 188.953 247.626 188.904 247.772 188.917L312.382 194.523C312.647 194.546 312.851 194.768 312.851 195.034V211.353C312.851 211.497 312.791 211.634 312.685 211.731C312.59 211.818 312.467 211.866 312.338 211.866C312.323 211.866 312.309 211.865 312.294 211.864ZM248.24 189.987V205.276L311.825 210.793V195.504L248.24 189.987Z" fill="#383838"/>
<path d="M233.712 210.818L298.323 216.424L312.338 211.317L247.728 205.711L233.712 210.818Z" fill="#F9F4DA"/>
<path d="M298.279 216.935L233.669 211.329C233.429 211.308 233.236 211.124 233.204 210.885C233.173 210.647 233.311 210.418 233.537 210.336L247.552 205.229C247.622 205.203 247.702 205.192 247.771 205.2L312.381 210.806C312.62 210.827 312.814 211.011 312.846 211.25C312.877 211.488 312.739 211.717 312.512 211.799L298.497 216.906C298.441 216.927 298.382 216.937 298.322 216.937C298.308 216.937 298.293 216.936 298.279 216.935ZM247.797 206.232L236.064 210.507L298.254 215.903L309.987 211.628L247.797 206.232Z" fill="#383838"/>
<path d="M233.712 227.137L298.323 232.743V216.424L233.712 210.818V227.137Z" fill="#F9F4DA"/>
<path d="M298.279 233.254L233.669 227.648C233.403 227.625 233.2 227.403 233.2 227.137V210.818C233.2 210.674 233.26 210.537 233.366 210.44C233.472 210.343 233.613 210.295 233.757 210.307L298.367 215.913C298.633 215.936 298.836 216.158 298.836 216.424V232.743C298.836 232.887 298.776 233.024 298.67 233.121C298.575 233.208 298.452 233.256 298.323 233.256C298.308 233.256 298.294 233.255 298.279 233.254ZM234.225 211.377V226.666L297.809 232.183V216.894L234.225 211.377Z" fill="#383838"/>
<path d="M219.697 232.209L284.307 237.815L298.323 232.708L233.712 227.102L219.697 232.209Z" fill="#F9F4DA"/>
<path d="M284.263 238.325L219.653 232.718C219.414 232.697 219.22 232.513 219.188 232.274C219.157 232.036 219.295 231.807 219.522 231.725L233.538 226.619C233.608 226.593 233.689 226.581 233.757 226.59L298.367 232.196C298.607 232.217 298.8 232.401 298.832 232.64C298.863 232.878 298.725 233.107 298.499 233.189L284.483 238.296C284.427 238.317 284.368 238.327 284.308 238.327C284.292 238.327 284.277 238.327 284.263 238.325ZM233.782 227.622L222.048 231.897L284.238 237.293L295.972 233.018L233.782 227.622Z" fill="#383838"/>
<path d="M219.697 248.527L284.307 254.133V237.814L219.697 232.208V248.527Z" fill="#F9F4DA"/>
<path d="M284.263 254.644L219.653 249.038C219.388 249.015 219.184 248.794 219.184 248.527V232.207C219.184 232.063 219.244 231.926 219.35 231.829C219.456 231.732 219.598 231.681 219.741 231.696L284.351 237.303C284.617 237.326 284.82 237.548 284.82 237.814V254.133C284.82 254.276 284.76 254.414 284.654 254.511C284.559 254.598 284.436 254.646 284.307 254.646C284.292 254.646 284.278 254.645 284.263 254.644ZM220.209 232.767V248.057L283.794 253.574V238.285L220.209 232.767Z" fill="#383838"/>
<path d="M205.681 253.598L270.291 259.204L284.307 254.098L219.697 248.491L205.681 253.598Z" fill="#F9F4DA"/>
<path d="M270.247 259.716L205.637 254.109C205.398 254.088 205.204 253.904 205.172 253.665C205.141 253.427 205.279 253.198 205.506 253.116L219.521 248.009C219.591 247.983 219.671 247.973 219.74 247.98L284.35 253.587C284.589 253.608 284.783 253.792 284.815 254.031C284.846 254.269 284.708 254.498 284.481 254.58L270.466 259.687C270.41 259.708 270.351 259.718 270.291 259.718C270.276 259.717 270.261 259.717 270.247 259.716ZM219.765 249.012L208.032 253.287L270.222 258.683L281.955 254.408L219.765 249.012Z" fill="#383838"/>
<path d="M205.681 269.917L270.291 275.523V259.204L205.681 253.598V269.917Z" fill="#F9F4DA"/>
<path d="M270.247 276.035L205.637 270.428C205.371 270.405 205.168 270.184 205.168 269.917V253.598C205.168 253.455 205.228 253.318 205.334 253.22C205.44 253.123 205.578 253.078 205.725 253.087L270.335 258.694C270.6 258.717 270.804 258.938 270.804 259.205V275.524C270.804 275.667 270.744 275.804 270.638 275.902C270.543 275.989 270.42 276.037 270.291 276.037C270.276 276.037 270.262 276.036 270.247 276.035ZM206.194 254.157V269.447L269.779 274.965V259.675L206.194 254.157Z" fill="#383838"/>
<path d="M191.665 274.988L256.276 280.594L270.291 275.488L205.681 269.881L191.665 274.988Z" fill="#F9F4DA"/>
<path d="M256.232 281.105L191.621 275.498C191.381 275.477 191.188 275.293 191.156 275.054C191.125 274.816 191.263 274.587 191.489 274.505L205.505 269.399C205.575 269.372 205.654 269.364 205.724 269.37L270.334 274.976C270.573 274.997 270.767 275.181 270.799 275.42C270.83 275.658 270.692 275.887 270.465 275.969L256.45 281.076C256.394 281.097 256.335 281.107 256.275 281.107C256.261 281.107 256.246 281.106 256.232 281.105ZM205.75 270.403L194.016 274.677L256.207 280.073L267.94 275.798L205.75 270.403Z" fill="#383838"/>
<path d="M191.665 291.307L256.276 296.914V280.594L191.665 274.988V291.307Z" fill="#F9F4DA"/>
<path d="M256.232 297.424L191.621 291.817C191.355 291.794 191.152 291.572 191.152 291.306V274.987C191.152 274.844 191.212 274.707 191.318 274.609C191.424 274.512 191.565 274.468 191.709 274.476L256.32 280.083C256.585 280.106 256.789 280.327 256.789 280.594V296.913C256.789 297.056 256.729 297.193 256.623 297.291C256.528 297.378 256.405 297.426 256.276 297.426C256.261 297.426 256.247 297.425 256.232 297.424ZM192.178 275.547V290.837L255.763 296.355V281.065L192.178 275.547Z" fill="#383838"/>
<path d="M177.65 312.698L242.26 318.304V301.985L177.65 296.378V312.698Z" fill="#F9F4DA"/>
<path d="M242.216 318.814L177.606 313.208C177.341 313.185 177.137 312.964 177.137 312.697V296.378C177.137 296.235 177.197 296.098 177.303 296C177.409 295.903 177.55 295.86 177.694 295.867L242.304 301.473C242.57 301.496 242.773 301.717 242.773 301.984V318.303C242.773 318.446 242.713 318.583 242.607 318.681C242.512 318.768 242.389 318.816 242.26 318.816C242.245 318.816 242.231 318.815 242.216 318.814ZM178.163 296.938V312.227L241.747 317.745V302.455L178.163 296.938Z" fill="#383838"/>
<path d="M177.65 296.378L242.26 301.985L256.276 296.878L191.665 291.272L177.65 296.378Z" fill="#F9F4DA"/>
<path d="M242.216 302.495L177.606 296.889C177.367 296.868 177.173 296.684 177.141 296.445C177.11 296.207 177.248 295.978 177.475 295.896L191.49 290.789C191.56 290.763 191.641 290.754 191.709 290.76L256.32 296.366C256.559 296.387 256.753 296.571 256.785 296.81C256.816 297.048 256.678 297.277 256.451 297.359L242.435 302.466C242.379 302.487 242.32 302.497 242.26 302.497C242.245 302.497 242.23 302.496 242.216 302.495ZM191.734 291.793L180.001 296.068L242.191 301.463L253.925 297.188L191.734 291.793Z" fill="#383838"/>
<path d="M256.276 296.878V280.594L270.291 275.488V259.204L284.307 254.098V254.097V237.814L298.323 232.707V216.424L312.338 211.317V195.034L326.354 189.927V173.644L357.119 161.59L356.645 177.363L340.369 184.325L326.354 205.715L312.338 227.105L284.307 269.886L256.276 312.666L242.26 318.268V301.985L256.276 296.878Z" fill="#383838"/>
<path d="M261.743 168.037L326.354 173.644L356.606 161.96L340.369 162.303L287.881 158.537L275.759 162.931L261.743 168.037Z" fill="#F9F4DA"/>
<path d="M326.31 174.155L261.7 168.548C261.461 168.528 261.267 168.343 261.235 168.104C261.204 167.866 261.342 167.637 261.569 167.555L287.707 158.054C287.774 158.03 287.839 158.019 287.918 158.025L357.119 161.589C357.119 161.804 356.984 162.368 356.782 162.441L326.529 174.125C326.473 174.145 326.414 174.156 326.354 174.156C326.339 174.157 326.324 174.156 326.31 174.155ZM340.06 162.281L287.953 159.057L264.095 167.727L326.285 173.123L354.535 162.527L340.06 162.281Z" fill="#383838"/>
<path d="M406.006 149.239L405.441 143.522L404.876 149.239C404.722 150.799 403.496 152.038 401.938 152.209L397.057 152.745L401.938 153.281C403.496 153.452 404.722 154.691 404.876 156.251L405.441 161.968L406.006 156.251C406.16 154.691 407.386 153.452 408.944 153.281L413.825 152.745L408.944 152.209C407.386 152.038 406.161 150.799 406.006 149.239Z" fill="#F9F4DA"/>
<path d="M386.095 138.083L385.53 132.366L384.965 138.083C384.811 139.643 383.585 140.882 382.027 141.053L377.146 141.589L382.027 142.125C383.585 142.296 384.811 143.535 384.965 145.095L385.53 150.812L386.095 145.095C386.249 143.535 387.475 142.296 389.033 142.125L393.914 141.589L389.033 141.053C387.475 140.882 386.249 139.643 386.095 138.083Z" fill="#F9F4DA"/>
<path d="M299.401 134.146L298.836 128.429L298.271 134.146C298.117 135.706 296.891 136.945 295.333 137.116L290.452 137.652L295.333 138.188C296.891 138.359 298.117 139.598 298.271 141.158L298.836 146.875L299.401 141.158C299.555 139.598 300.781 138.359 302.339 138.188L307.22 137.652L302.339 137.116C300.781 136.945 299.555 135.706 299.401 134.146Z" fill="#F9F4DA"/>
<path d="M339.857 162.522C292.467 162.522 255.345 153.328 255.345 141.59C255.345 129.853 292.467 120.658 339.857 120.658C387.247 120.658 424.369 129.852 424.369 141.59C424.369 153.327 387.246 162.522 339.857 162.522ZM339.857 121.658C293.808 121.658 256.345 130.599 256.345 141.59C256.345 152.581 293.808 161.522 339.857 161.522C385.906 161.522 423.369 152.581 423.369 141.59C423.369 130.599 385.906 121.658 339.857 121.658Z" fill="#383838"/>
<path d="M206.318 374.122L205.168 362.491L204.018 374.122C203.704 377.296 201.211 379.817 198.04 380.165L188.109 381.256L198.04 382.347C201.211 382.695 203.704 385.216 204.018 388.39L205.168 400.021L206.318 388.39C206.632 385.216 209.125 382.695 212.296 382.347L222.227 381.256L212.296 380.165C209.126 379.817 206.632 377.297 206.318 374.122Z" fill="#F9F4DA"/>
<path d="M73.514 351.506L72.364 339.875L71.214 351.506C70.9 354.68 68.407 357.201 65.236 357.549L55.3049 358.64L65.236 359.731C68.407 360.079 70.9 362.6 71.214 365.774L72.364 377.405L73.514 365.774C73.828 362.6 76.3209 360.079 79.4919 359.731L89.423 358.64L79.4919 357.549C76.3219 357.201 73.828 354.68 73.514 351.506Z" fill="#F9F4DA"/>
<path d="M260.448 352.001L259.883 346.284L259.318 352.001C259.164 353.561 257.938 354.8 256.38 354.971L251.499 355.507L256.38 356.043C257.938 356.214 259.164 357.453 259.318 359.013L259.883 364.73L260.448 359.013C260.602 357.453 261.828 356.214 263.386 356.043L268.267 355.507L263.386 354.971C261.828 354.8 260.602 353.562 260.448 352.001Z" fill="#F9F4DA"/>
<path d="M139.387 332.339L138.822 326.622L138.257 332.339C138.103 333.899 136.877 335.138 135.319 335.309L130.438 335.845L135.319 336.381C136.877 336.552 138.103 337.791 138.257 339.351L138.822 345.068L139.387 339.351C139.541 337.791 140.767 336.552 142.325 336.381L147.206 335.845L142.325 335.309C140.767 335.138 139.541 333.899 139.387 332.339Z" fill="#F9F4DA"/>
<path d="M157.77 389.374C115.723 389.374 76.187 385.391 46.445 378.157C16.494 370.873 0 361.095 0 350.626C0 340.156 16.494 330.378 46.445 323.094C76.187 315.861 115.723 311.877 157.77 311.877C199.817 311.877 239.353 315.86 269.096 323.094C299.046 330.378 315.541 340.157 315.541 350.626C315.541 361.096 299.046 370.873 269.096 378.157C239.354 385.39 199.818 389.374 157.77 389.374ZM157.77 312.877C71.327 312.877 0.999023 329.812 0.999023 350.626C0.999023 371.44 71.326 388.374 157.77 388.374C244.214 388.374 314.541 371.44 314.541 350.626C314.541 329.811 244.214 312.877 157.77 312.877Z" fill="#383838"/>
<path d="M241.747 316.605V319.409L178.163 314.016V311.273L241.747 316.605Z" fill="#F9F4DA"/>
<path d="M354.396 161.699V136.301C354.396 70.6631 301.185 17.4521 235.547 17.4521C169.909 17.4521 116.697 70.6621 116.697 136.301L116.424 387.73L134.179 388.4L133.906 136.301C133.906 80.1661 179.413 34.6602 235.547 34.6602C291.682 34.6602 337.189 80.1661 337.189 136.301V162.022L354.396 161.699Z" fill="#14B6E5"/>
<path d="M100.293 385.683V136.082C100.293 61.0808 161.093 0.280762 236.094 0.280762C311.095 0.280762 371.895 61.0808 371.895 136.082V160.278L354.944 161.48V136.082C354.944 70.4428 301.733 17.2328 236.095 17.2328C170.457 17.2328 117.246 70.4438 117.246 136.082L116.973 387.511L100.293 385.683Z" fill="#F9F4DA"/>
<path d="M100.292 386.402C100.016 386.402 99.792 386.178 99.792 385.902V136.301C99.792 61.144 160.937 0 236.093 0C311.249 0 372.394 61.144 372.394 136.301V160.497C372.394 160.773 372.17 160.997 371.894 160.997C371.618 160.997 371.394 160.773 371.394 160.497V136.301C371.394 61.696 310.699 1 236.093 1C161.487 1 100.792 61.696 100.792 136.301V385.902C100.792 386.178 100.569 386.402 100.292 386.402Z" fill="#383838"/>
<path d="M116.971 388.23C116.695 388.23 116.471 388.005 116.471 387.729L116.744 136.3C116.744 70.4912 170.284 16.9512 236.093 16.9512C301.903 16.9512 355.443 70.4912 355.443 136.3V161.698C355.443 161.974 355.219 162.198 354.943 162.198C354.667 162.198 354.443 161.974 354.443 161.698V136.3C354.443 71.0422 301.351 17.9512 236.093 17.9512C170.835 17.9512 117.744 71.0422 117.744 136.3L117.471 387.73C117.471 388.006 117.246 388.23 116.971 388.23Z" fill="#383838"/>
<path d="M134.725 388.4L134.452 136.301C134.452 80.1662 179.958 34.6602 236.093 34.6602C292.228 34.6602 337.735 80.1662 337.735 136.301V162.022L319.379 161.59L319.652 136.301C319.652 90.1532 282.241 52.7421 236.093 52.7421C189.945 52.7421 152.534 90.1532 152.534 136.301V388.874L134.725 388.4Z" fill="#FF3333"/>
<path d="M134.725 388.9C134.449 388.9 134.225 388.676 134.225 388.401L133.951 136.301C133.951 79.9792 179.771 34.1592 236.093 34.1592C292.414 34.1592 338.235 79.9792 338.235 136.301V162.022C338.235 162.298 338.011 162.522 337.735 162.522C337.459 162.522 337.235 162.298 337.235 162.022V136.301C337.235 80.5322 291.863 35.1592 236.093 35.1592C180.324 35.1592 134.951 80.5312 134.951 136.301L135.225 388.399C135.225 388.675 135.001 388.9 134.725 388.9Z" fill="#383838"/>
<path d="M319.379 161.59L319.652 136.301C319.652 90.1532 282.241 52.7422 236.093 52.7422C189.945 52.7422 152.534 90.1532 152.534 136.301V388.874H170.617V136.301C170.617 100.14 199.932 70.8252 236.093 70.8252C272.255 70.8252 301.569 100.14 301.569 136.301V159.445L319.379 161.59Z" fill="#FCBA28"/>
<path d="M152.534 389.374C152.258 389.374 152.034 389.15 152.034 388.874V136.301C152.034 89.9502 189.743 52.2422 236.093 52.2422C282.444 52.2422 320.153 89.9512 320.153 136.301L319.879 161.596C319.876 161.87 319.652 162.091 319.379 162.091C319.377 162.091 319.375 162.091 319.373 162.091C319.098 162.088 318.876 161.861 318.879 161.586L319.153 136.297C319.153 90.5032 281.892 53.2432 236.093 53.2432C190.294 53.2432 153.034 90.5032 153.034 136.302V388.875C153.034 389.15 152.811 389.374 152.534 389.374Z" fill="#383838"/>
<path d="M170.617 389.374C170.341 389.374 170.117 389.15 170.117 388.874V136.301C170.117 99.9222 199.714 70.3252 236.093 70.3252C272.473 70.3252 302.07 99.9222 302.07 136.301V159.445C302.07 159.721 301.846 159.945 301.57 159.945C301.294 159.945 301.07 159.721 301.07 159.445V136.301C301.07 100.473 271.922 71.3252 236.093 71.3252C200.265 71.3252 171.117 100.473 171.117 136.301V388.874C171.117 389.15 170.894 389.374 170.617 389.374Z" fill="#383838"/>
<path d="M339.857 162.522C292.467 162.522 255.345 153.328 255.345 141.59H256.345C256.345 152.581 293.808 161.522 339.857 161.522C385.906 161.522 423.369 152.581 423.369 141.59H424.369C424.369 153.327 387.246 162.522 339.857 162.522Z" fill="#383838"/>
<path d="M157.77 389.374C115.723 389.374 76.187 385.391 46.445 378.157C16.494 370.873 0 361.095 0 350.626H1C1 371.44 71.327 388.374 157.771 388.374C244.215 388.374 314.542 371.44 314.542 350.626H315.542C315.542 361.096 299.047 370.873 269.097 378.157C239.354 385.39 199.818 389.374 157.77 389.374Z" fill="#383838"/>
</svg>
