<svg width="64" height="64" viewBox="0 0 64 64" fill="none" xmlns="http://www.w3.org/2000/svg">
<path d="M64 64H0V0H64V64ZM51.8643 12.125C49.9689 12.4273 47.4606 12.9259 44.6396 13.7383C38.3551 15.5482 30.7314 18.8507 24.791 24.791C18.8507 30.7314 15.5482 38.3551 13.7383 44.6396C12.9259 47.4606 12.4273 49.9689 12.125 51.8643C14.0204 51.562 16.5284 51.0644 19.3496 50.252C25.6342 48.4421 33.2587 45.1397 39.1992 39.1992C45.1397 33.2587 48.4421 25.6342 50.252 19.3496C51.0644 16.5284 51.562 14.0204 51.8643 12.125Z" fill="#F9F4DA"/>
<path d="M3 3V61H61V3H3ZM41.3202 41.3202C28.4511 54.1893 8.69209 55.298 8.69209 55.298C8.69209 55.298 9.80081 35.539 22.6699 22.6699C35.539 9.80082 55.298 8.69209 55.298 8.69209C55.298 8.69209 54.1893 28.4511 41.3202 41.3202Z" fill="#FCBA28"/>
</svg>
