<svg width="64" height="64" viewBox="0 0 64 64" fill="none" xmlns="http://www.w3.org/2000/svg">
<path d="M31.9999 5.38574C39.4515 -0.296165 50.1312 0.246452 56.9423 7.05762C63.7536 13.8689 64.2955 24.5484 58.6132 32C64.2955 39.4516 63.7536 50.1311 56.9423 56.9424C50.131 63.7537 39.4515 64.2956 31.9999 58.6133C24.5484 64.2956 13.8689 63.7537 7.05756 56.9424C0.246391 50.1312 -0.296226 39.4515 5.38568 32C-0.296228 24.5485 0.246391 13.8688 7.05756 7.05762C13.8687 0.246451 24.5484 -0.296164 31.9999 5.38574ZM44.1562 19.8438C41.0944 16.782 36.2045 16.6579 32.9872 19.4707L31.9999 20.333L31.0126 19.4707C27.796 16.6585 22.9125 16.7811 19.8427 19.8447C16.7764 22.9049 16.6566 27.7941 19.4706 31.0127L20.3329 32L19.4706 32.9873C16.6578 36.2046 16.782 41.0945 19.8437 44.1562C22.9054 47.218 27.7954 47.3421 31.0126 44.5293L31.9999 43.667L32.9872 44.5293C36.2045 47.3421 41.0944 47.218 44.1562 44.1562C47.2179 41.0945 47.342 36.2046 44.5292 32.9873L43.6669 32L44.5292 31.0127C47.342 27.7954 47.2179 22.9055 44.1562 19.8438Z" fill="#14B6E5" stroke="#F9F4DA" stroke-width="3"/>
</svg>
