<svg width="71" height="67" viewBox="0 0 71 67" fill="none" xmlns="http://www.w3.org/2000/svg">
<path d="M48.8662 14.4639L63.5137 12.7656L57.376 26.1689L70.2197 33.4072L57.376 40.6445L63.5137 54.0527L48.8652 52.3496L45.96 66.8145L35.1074 56.8184L24.2559 66.8145L21.3496 52.3496L6.70215 54.0527L12.8389 40.6436L0 33.4072L12.8389 26.1699L6.70215 12.7656L21.3486 14.4639L24.2559 0L35.1084 9.99609L45.9639 0L48.8662 14.4639Z" fill="#F9F4DA"/>
<path d="M64.1094 33.4072L53.5011 39.3852L58.569 50.4579L46.4689 49.0514L44.0697 60.9941L35.1081 52.7396L26.1464 60.9941L23.7472 49.0514L11.647 50.4579L16.715 39.3852L6.10938 33.4072L16.715 27.4292L11.647 16.3592L23.7472 17.763L26.1464 5.82031L35.1081 14.0748L44.0724 5.82031L46.4689 17.763L58.569 16.3592L53.5011 27.4292L64.1094 33.4072Z" fill="#0CA95B"/>
</svg>
